<mxfile host="app.diagrams.net" agent="Mozilla/5.0 (Windows NT 10.0; Win64; x64) AppleWebKit/537.36 (KHTML, like Gecko) Chrome/138.0.0.0 Safari/537.36" version="27.2.0">
  <diagram name="PÃ¡gina-1" id="TGySJNzwh5DUvGHJewyj">
    <mxGraphModel dx="1453" dy="718" grid="1" gridSize="10" guides="1" tooltips="1" connect="1" arrows="1" fold="1" page="1" pageScale="1" pageWidth="827" pageHeight="1169" math="0" shadow="0">
      <root>
        <mxCell id="0" />
        <mxCell id="1" parent="0" />
        <mxCell id="D4AIVkhYn-2Lcm_9Q2JB-681" value="" style="edgeStyle=orthogonalEdgeStyle;rounded=0;orthogonalLoop=1;jettySize=auto;html=1;" parent="1" source="D4AIVkhYn-2Lcm_9Q2JB-679" target="D4AIVkhYn-2Lcm_9Q2JB-680" edge="1">
          <mxGeometry relative="1" as="geometry" />
        </mxCell>
        <mxCell id="D4AIVkhYn-2Lcm_9Q2JB-679" value="&lt;font style=&quot;font-size: 10px;&quot;&gt;inicio&lt;/font&gt;" style="ellipse;whiteSpace=wrap;html=1;" parent="1" vertex="1">
          <mxGeometry x="160" y="30" width="50" height="20" as="geometry" />
        </mxCell>
        <mxCell id="D4AIVkhYn-2Lcm_9Q2JB-683" value="" style="edgeStyle=orthogonalEdgeStyle;rounded=0;orthogonalLoop=1;jettySize=auto;html=1;" parent="1" source="D4AIVkhYn-2Lcm_9Q2JB-680" target="D4AIVkhYn-2Lcm_9Q2JB-682" edge="1">
          <mxGeometry relative="1" as="geometry" />
        </mxCell>
        <mxCell id="D4AIVkhYn-2Lcm_9Q2JB-680" value="&lt;font style=&quot;font-size: 10px;&quot;&gt;Prizes(player, shortcut)&lt;/font&gt;" style="ellipse;whiteSpace=wrap;html=1;" parent="1" vertex="1">
          <mxGeometry x="140" y="80" width="90" height="40" as="geometry" />
        </mxCell>
        <mxCell id="D4AIVkhYn-2Lcm_9Q2JB-685" value="" style="edgeStyle=orthogonalEdgeStyle;rounded=0;orthogonalLoop=1;jettySize=auto;html=1;" parent="1" source="D4AIVkhYn-2Lcm_9Q2JB-682" target="D4AIVkhYn-2Lcm_9Q2JB-684" edge="1">
          <mxGeometry relative="1" as="geometry" />
        </mxCell>
        <mxCell id="D4AIVkhYn-2Lcm_9Q2JB-682" value="&lt;font style=&quot;font-size: 10px;&quot;&gt;int win&lt;/font&gt;" style="rounded=0;whiteSpace=wrap;html=1;" parent="1" vertex="1">
          <mxGeometry x="155" y="140" width="60" height="20" as="geometry" />
        </mxCell>
        <mxCell id="D4AIVkhYn-2Lcm_9Q2JB-687" style="edgeStyle=orthogonalEdgeStyle;rounded=0;orthogonalLoop=1;jettySize=auto;html=1;entryX=0.5;entryY=0;entryDx=0;entryDy=0;" parent="1" source="D4AIVkhYn-2Lcm_9Q2JB-684" target="D4AIVkhYn-2Lcm_9Q2JB-686" edge="1">
          <mxGeometry relative="1" as="geometry" />
        </mxCell>
        <mxCell id="D4AIVkhYn-2Lcm_9Q2JB-720" style="edgeStyle=orthogonalEdgeStyle;rounded=0;orthogonalLoop=1;jettySize=auto;html=1;" parent="1" source="D4AIVkhYn-2Lcm_9Q2JB-684" edge="1">
          <mxGeometry relative="1" as="geometry">
            <mxPoint x="250" y="1030" as="targetPoint" />
            <Array as="points">
              <mxPoint x="340" y="208" />
              <mxPoint x="340" y="990" />
              <mxPoint x="250" y="990" />
            </Array>
          </mxGeometry>
        </mxCell>
        <mxCell id="D4AIVkhYn-2Lcm_9Q2JB-684" value="&lt;font style=&quot;font-size: 10px;&quot;&gt;shorcut=true&lt;/font&gt;" style="rhombus;whiteSpace=wrap;html=1;" parent="1" vertex="1">
          <mxGeometry x="150" y="178" width="70" height="60" as="geometry" />
        </mxCell>
        <mxCell id="D4AIVkhYn-2Lcm_9Q2JB-690" value="" style="edgeStyle=orthogonalEdgeStyle;rounded=0;orthogonalLoop=1;jettySize=auto;html=1;" parent="1" source="D4AIVkhYn-2Lcm_9Q2JB-686" target="D4AIVkhYn-2Lcm_9Q2JB-689" edge="1">
          <mxGeometry relative="1" as="geometry" />
        </mxCell>
        <mxCell id="6bKhDqab4c361egNnqWA-1" style="edgeStyle=orthogonalEdgeStyle;rounded=0;orthogonalLoop=1;jettySize=auto;html=1;" edge="1" parent="1" source="D4AIVkhYn-2Lcm_9Q2JB-686" target="D4AIVkhYn-2Lcm_9Q2JB-708">
          <mxGeometry relative="1" as="geometry" />
        </mxCell>
        <mxCell id="D4AIVkhYn-2Lcm_9Q2JB-686" value="&lt;font style=&quot;font-size: 10px;&quot;&gt;win=0&lt;/font&gt;" style="rounded=0;whiteSpace=wrap;html=1;" parent="1" vertex="1">
          <mxGeometry x="80" y="230" width="50" height="20" as="geometry" />
        </mxCell>
        <mxCell id="D4AIVkhYn-2Lcm_9Q2JB-688" value="&lt;font style=&quot;font-size: 10px;&quot;&gt;yes&lt;/font&gt;" style="text;html=1;align=center;verticalAlign=middle;resizable=0;points=[];autosize=1;strokeColor=none;fillColor=none;" parent="1" vertex="1">
          <mxGeometry x="120" y="178" width="40" height="30" as="geometry" />
        </mxCell>
        <mxCell id="D4AIVkhYn-2Lcm_9Q2JB-694" style="edgeStyle=orthogonalEdgeStyle;rounded=0;orthogonalLoop=1;jettySize=auto;html=1;entryX=0.5;entryY=0;entryDx=0;entryDy=0;exitX=0.007;exitY=0.563;exitDx=0;exitDy=0;exitPerimeter=0;" parent="1" source="D4AIVkhYn-2Lcm_9Q2JB-689" target="D4AIVkhYn-2Lcm_9Q2JB-696" edge="1">
          <mxGeometry relative="1" as="geometry">
            <mxPoint x="75" y="370" as="targetPoint" />
          </mxGeometry>
        </mxCell>
        <mxCell id="D4AIVkhYn-2Lcm_9Q2JB-689" value="&lt;font style=&quot;font-size: 10px;&quot;&gt;randonNum(1, 2)==1&lt;/font&gt;" style="rhombus;whiteSpace=wrap;html=1;" parent="1" vertex="1">
          <mxGeometry x="75" y="270" width="80" height="80" as="geometry" />
        </mxCell>
        <mxCell id="D4AIVkhYn-2Lcm_9Q2JB-700" value="" style="edgeStyle=orthogonalEdgeStyle;rounded=0;orthogonalLoop=1;jettySize=auto;html=1;" parent="1" source="D4AIVkhYn-2Lcm_9Q2JB-696" target="D4AIVkhYn-2Lcm_9Q2JB-699" edge="1">
          <mxGeometry relative="1" as="geometry" />
        </mxCell>
        <mxCell id="D4AIVkhYn-2Lcm_9Q2JB-696" value="&lt;div&gt;&lt;font style=&quot;font-size: 10px;&quot;&gt;itemsTxt(1)&lt;/font&gt;&lt;/div&gt;&lt;div&gt;&lt;font style=&quot;font-size: 10px;&quot;&gt;player.lifeMax += 1;&lt;/font&gt;&lt;/div&gt;&lt;div&gt;&lt;font style=&quot;font-size: 10px;&quot;&gt;win++;&lt;/font&gt;&lt;/div&gt;" style="rounded=0;whiteSpace=wrap;html=1;" parent="1" vertex="1">
          <mxGeometry x="20" y="355" width="90" height="50" as="geometry" />
        </mxCell>
        <mxCell id="D4AIVkhYn-2Lcm_9Q2JB-699" value="&lt;font style=&quot;font-size: 10px;&quot;&gt;randonNum(1, 4)==1&lt;/font&gt;" style="rhombus;whiteSpace=wrap;html=1;" parent="1" vertex="1">
          <mxGeometry x="100" y="430" width="80" height="80" as="geometry" />
        </mxCell>
        <mxCell id="D4AIVkhYn-2Lcm_9Q2JB-711" style="edgeStyle=orthogonalEdgeStyle;rounded=0;orthogonalLoop=1;jettySize=auto;html=1;" parent="1" source="D4AIVkhYn-2Lcm_9Q2JB-704" target="D4AIVkhYn-2Lcm_9Q2JB-710" edge="1">
          <mxGeometry relative="1" as="geometry" />
        </mxCell>
        <mxCell id="D4AIVkhYn-2Lcm_9Q2JB-704" value="&lt;div&gt;&lt;font style=&quot;font-size: 10px;&quot;&gt;itemsTxt(2)&lt;/font&gt;&lt;/div&gt;&lt;div&gt;&lt;font style=&quot;font-size: 10px;&quot;&gt;player.damage += 1;&lt;/font&gt;&lt;/div&gt;&lt;div&gt;&lt;font style=&quot;font-size: 10px;&quot;&gt;win++;&lt;/font&gt;&lt;/div&gt;" style="rounded=0;whiteSpace=wrap;html=1;" parent="1" vertex="1">
          <mxGeometry x="20" y="500" width="100" height="45" as="geometry" />
        </mxCell>
        <mxCell id="D4AIVkhYn-2Lcm_9Q2JB-705" style="edgeStyle=orthogonalEdgeStyle;rounded=0;orthogonalLoop=1;jettySize=auto;html=1;entryX=0.5;entryY=0;entryDx=0;entryDy=0;exitX=0;exitY=0.5;exitDx=0;exitDy=0;" parent="1" source="D4AIVkhYn-2Lcm_9Q2JB-699" target="D4AIVkhYn-2Lcm_9Q2JB-704" edge="1">
          <mxGeometry relative="1" as="geometry">
            <mxPoint x="69.96000000000004" y="500" as="targetPoint" />
          </mxGeometry>
        </mxCell>
        <mxCell id="D4AIVkhYn-2Lcm_9Q2JB-712" style="edgeStyle=orthogonalEdgeStyle;rounded=0;orthogonalLoop=1;jettySize=auto;html=1;" parent="1" source="D4AIVkhYn-2Lcm_9Q2JB-708" target="D4AIVkhYn-2Lcm_9Q2JB-710" edge="1">
          <mxGeometry relative="1" as="geometry" />
        </mxCell>
        <mxCell id="D4AIVkhYn-2Lcm_9Q2JB-708" value="&lt;div&gt;&lt;font style=&quot;font-size: 10px;&quot;&gt;itemsTxt(3)&lt;/font&gt;&lt;/div&gt;&lt;div&gt;&lt;font style=&quot;font-size: 10px;&quot;&gt;player.items += 1;&lt;/font&gt;&lt;/div&gt;&lt;div&gt;&lt;font style=&quot;font-size: 10px;&quot;&gt;win++;&lt;/font&gt;&lt;/div&gt;" style="rounded=0;whiteSpace=wrap;html=1;" parent="1" vertex="1">
          <mxGeometry x="160" y="510" width="100" height="45" as="geometry" />
        </mxCell>
        <mxCell id="D4AIVkhYn-2Lcm_9Q2JB-713" style="edgeStyle=orthogonalEdgeStyle;rounded=0;orthogonalLoop=1;jettySize=auto;html=1;entryX=1;entryY=0.5;entryDx=0;entryDy=0;exitX=1;exitY=0.5;exitDx=0;exitDy=0;" parent="1" source="D4AIVkhYn-2Lcm_9Q2JB-710" target="D4AIVkhYn-2Lcm_9Q2JB-686" edge="1">
          <mxGeometry relative="1" as="geometry">
            <Array as="points">
              <mxPoint x="290" y="635" />
              <mxPoint x="290" y="500" />
              <mxPoint x="260" y="500" />
              <mxPoint x="260" y="240" />
            </Array>
          </mxGeometry>
        </mxCell>
        <mxCell id="D4AIVkhYn-2Lcm_9Q2JB-715" value="" style="edgeStyle=orthogonalEdgeStyle;rounded=0;orthogonalLoop=1;jettySize=auto;html=1;" parent="1" source="D4AIVkhYn-2Lcm_9Q2JB-710" target="D4AIVkhYn-2Lcm_9Q2JB-714" edge="1">
          <mxGeometry relative="1" as="geometry" />
        </mxCell>
        <mxCell id="D4AIVkhYn-2Lcm_9Q2JB-710" value="&lt;font style=&quot;font-size: 10px;&quot;&gt;randonNum(1, 2)==1 &amp;amp;&amp;amp; win != 3&lt;/font&gt;" style="rhombus;whiteSpace=wrap;html=1;" parent="1" vertex="1">
          <mxGeometry x="75" y="585" width="110" height="100" as="geometry" />
        </mxCell>
        <mxCell id="6bKhDqab4c361egNnqWA-3" style="edgeStyle=orthogonalEdgeStyle;rounded=0;orthogonalLoop=1;jettySize=auto;html=1;entryX=0.5;entryY=0;entryDx=0;entryDy=0;" edge="1" parent="1" source="D4AIVkhYn-2Lcm_9Q2JB-714" target="6bKhDqab4c361egNnqWA-2">
          <mxGeometry relative="1" as="geometry" />
        </mxCell>
        <mxCell id="D4AIVkhYn-2Lcm_9Q2JB-714" value="&lt;font style=&quot;font-size: 10px;&quot;&gt;win == 3&lt;/font&gt;" style="rhombus;whiteSpace=wrap;html=1;" parent="1" vertex="1">
          <mxGeometry x="100" y="710" width="60" height="50" as="geometry" />
        </mxCell>
        <mxCell id="D4AIVkhYn-2Lcm_9Q2JB-768" style="edgeStyle=orthogonalEdgeStyle;rounded=0;orthogonalLoop=1;jettySize=auto;html=1;entryX=0;entryY=0.5;entryDx=0;entryDy=0;" parent="1" source="D4AIVkhYn-2Lcm_9Q2JB-718" edge="1" target="D4AIVkhYn-2Lcm_9Q2JB-769">
          <mxGeometry relative="1" as="geometry">
            <mxPoint x="420" y="1130" as="targetPoint" />
            <Array as="points">
              <mxPoint x="95" y="1120" />
              <mxPoint x="351" y="1120" />
              <mxPoint x="351" y="1140" />
              <mxPoint x="390" y="1140" />
              <mxPoint x="390" y="905" />
            </Array>
          </mxGeometry>
        </mxCell>
        <mxCell id="D4AIVkhYn-2Lcm_9Q2JB-718" value="&lt;font style=&quot;font-size: 10px;&quot;&gt;player.lvl =100&lt;/font&gt;" style="rounded=0;whiteSpace=wrap;html=1;" parent="1" vertex="1">
          <mxGeometry x="60" y="820" width="70" height="30" as="geometry" />
        </mxCell>
        <mxCell id="D4AIVkhYn-2Lcm_9Q2JB-721" value="" style="shape=flexArrow;endArrow=classic;html=1;rounded=0;width=28.387096774193548;endSize=7.72258064516129;" parent="1" edge="1">
          <mxGeometry width="50" height="50" relative="1" as="geometry">
            <mxPoint x="250" y="1040" as="sourcePoint" />
            <mxPoint x="250" y="1080" as="targetPoint" />
          </mxGeometry>
        </mxCell>
        <mxCell id="D4AIVkhYn-2Lcm_9Q2JB-722" value="1" style="edgeLabel;html=1;align=center;verticalAlign=middle;resizable=0;points=[];" parent="D4AIVkhYn-2Lcm_9Q2JB-721" vertex="1" connectable="0">
          <mxGeometry x="-0.1258" y="2" relative="1" as="geometry">
            <mxPoint as="offset" />
          </mxGeometry>
        </mxCell>
        <mxCell id="D4AIVkhYn-2Lcm_9Q2JB-723" value="" style="shape=flexArrow;endArrow=classic;html=1;rounded=0;width=28.387096774193548;endSize=7.72258064516129;fontStyle=1" parent="1" edge="1">
          <mxGeometry width="50" height="50" relative="1" as="geometry">
            <mxPoint x="470" y="30" as="sourcePoint" />
            <mxPoint x="470" y="70" as="targetPoint" />
          </mxGeometry>
        </mxCell>
        <mxCell id="D4AIVkhYn-2Lcm_9Q2JB-724" value="1" style="edgeLabel;html=1;align=center;verticalAlign=middle;resizable=0;points=[];" parent="D4AIVkhYn-2Lcm_9Q2JB-723" vertex="1" connectable="0">
          <mxGeometry x="-0.1258" y="2" relative="1" as="geometry">
            <mxPoint as="offset" />
          </mxGeometry>
        </mxCell>
        <mxCell id="D4AIVkhYn-2Lcm_9Q2JB-726" value="" style="edgeStyle=orthogonalEdgeStyle;rounded=0;orthogonalLoop=1;jettySize=auto;html=1;" parent="1" source="D4AIVkhYn-2Lcm_9Q2JB-727" target="D4AIVkhYn-2Lcm_9Q2JB-729" edge="1">
          <mxGeometry relative="1" as="geometry" />
        </mxCell>
        <mxCell id="D4AIVkhYn-2Lcm_9Q2JB-727" value="&lt;font style=&quot;font-size: 10px;&quot;&gt;win=0&lt;/font&gt;" style="rounded=0;whiteSpace=wrap;html=1;" parent="1" vertex="1">
          <mxGeometry x="440" y="70" width="50" height="20" as="geometry" />
        </mxCell>
        <mxCell id="D4AIVkhYn-2Lcm_9Q2JB-750" style="edgeStyle=orthogonalEdgeStyle;rounded=0;orthogonalLoop=1;jettySize=auto;html=1;exitX=0.014;exitY=0.577;exitDx=0;exitDy=0;exitPerimeter=0;entryX=0.5;entryY=0;entryDx=0;entryDy=0;" parent="1" source="D4AIVkhYn-2Lcm_9Q2JB-729" target="D4AIVkhYn-2Lcm_9Q2JB-733" edge="1">
          <mxGeometry relative="1" as="geometry">
            <mxPoint x="435" y="210" as="targetPoint" />
            <Array as="points">
              <mxPoint x="436" y="210" />
              <mxPoint x="410" y="210" />
              <mxPoint x="410" y="198" />
            </Array>
          </mxGeometry>
        </mxCell>
        <mxCell id="D4AIVkhYn-2Lcm_9Q2JB-729" value="&lt;font style=&quot;font-size: 10px;&quot;&gt;randonNum(1, 3)==1&lt;/font&gt;" style="rhombus;whiteSpace=wrap;html=1;" parent="1" vertex="1">
          <mxGeometry x="435" y="110" width="80" height="80" as="geometry" />
        </mxCell>
        <mxCell id="D4AIVkhYn-2Lcm_9Q2JB-732" value="" style="edgeStyle=orthogonalEdgeStyle;rounded=0;orthogonalLoop=1;jettySize=auto;html=1;" parent="1" source="D4AIVkhYn-2Lcm_9Q2JB-733" target="D4AIVkhYn-2Lcm_9Q2JB-734" edge="1">
          <mxGeometry relative="1" as="geometry" />
        </mxCell>
        <mxCell id="D4AIVkhYn-2Lcm_9Q2JB-733" value="&lt;div&gt;&lt;font style=&quot;font-size: 10px;&quot;&gt;itemsTxt(1)&lt;/font&gt;&lt;/div&gt;&lt;div&gt;&lt;font style=&quot;font-size: 10px;&quot;&gt;player.lifeMax += 1;&lt;/font&gt;&lt;/div&gt;&lt;div&gt;&lt;font style=&quot;font-size: 10px;&quot;&gt;win++;&lt;/font&gt;&lt;/div&gt;" style="rounded=0;whiteSpace=wrap;html=1;" parent="1" vertex="1">
          <mxGeometry x="369" y="188" width="90" height="40" as="geometry" />
        </mxCell>
        <mxCell id="D4AIVkhYn-2Lcm_9Q2JB-734" value="&lt;font style=&quot;font-size: 10px;&quot;&gt;randonNum(1, 7)==1&lt;/font&gt;" style="rhombus;whiteSpace=wrap;html=1;" parent="1" vertex="1">
          <mxGeometry x="440" y="260" width="80" height="80" as="geometry" />
        </mxCell>
        <mxCell id="D4AIVkhYn-2Lcm_9Q2JB-747" value="" style="edgeStyle=orthogonalEdgeStyle;rounded=0;orthogonalLoop=1;jettySize=auto;html=1;" parent="1" source="D4AIVkhYn-2Lcm_9Q2JB-738" target="D4AIVkhYn-2Lcm_9Q2JB-746" edge="1">
          <mxGeometry relative="1" as="geometry" />
        </mxCell>
        <mxCell id="D4AIVkhYn-2Lcm_9Q2JB-738" value="&lt;div&gt;&lt;font style=&quot;font-size: 10px;&quot;&gt;itemsTxt(2)&lt;/font&gt;&lt;/div&gt;&lt;div&gt;&lt;font style=&quot;font-size: 10px;&quot;&gt;player.damage += 1;&lt;/font&gt;&lt;/div&gt;&lt;div&gt;&lt;font style=&quot;font-size: 10px;&quot;&gt;win++;&lt;/font&gt;&lt;/div&gt;" style="rounded=0;whiteSpace=wrap;html=1;" parent="1" vertex="1">
          <mxGeometry x="369" y="340" width="100" height="50" as="geometry" />
        </mxCell>
        <mxCell id="D4AIVkhYn-2Lcm_9Q2JB-739" style="edgeStyle=orthogonalEdgeStyle;rounded=0;orthogonalLoop=1;jettySize=auto;html=1;entryX=0.5;entryY=0;entryDx=0;entryDy=0;exitX=0;exitY=0.5;exitDx=0;exitDy=0;" parent="1" source="D4AIVkhYn-2Lcm_9Q2JB-734" target="D4AIVkhYn-2Lcm_9Q2JB-738" edge="1">
          <mxGeometry relative="1" as="geometry">
            <mxPoint x="419.96000000000004" y="430" as="targetPoint" />
          </mxGeometry>
        </mxCell>
        <mxCell id="D4AIVkhYn-2Lcm_9Q2JB-752" value="" style="edgeStyle=orthogonalEdgeStyle;rounded=0;orthogonalLoop=1;jettySize=auto;html=1;" parent="1" source="D4AIVkhYn-2Lcm_9Q2JB-743" target="D4AIVkhYn-2Lcm_9Q2JB-751" edge="1">
          <mxGeometry relative="1" as="geometry" />
        </mxCell>
        <mxCell id="D4AIVkhYn-2Lcm_9Q2JB-743" value="&lt;div&gt;&lt;font style=&quot;font-size: 10px;&quot;&gt;itemsTxt(3)&lt;/font&gt;&lt;/div&gt;&lt;div&gt;&lt;font style=&quot;font-size: 10px;&quot;&gt;player.items += 1;&lt;/font&gt;&lt;/div&gt;&lt;div&gt;&lt;font style=&quot;font-size: 10px;&quot;&gt;win++;&lt;/font&gt;&lt;/div&gt;" style="rounded=0;whiteSpace=wrap;html=1;" parent="1" vertex="1">
          <mxGeometry x="370" y="530" width="100" height="40" as="geometry" />
        </mxCell>
        <mxCell id="D4AIVkhYn-2Lcm_9Q2JB-749" style="edgeStyle=orthogonalEdgeStyle;rounded=0;orthogonalLoop=1;jettySize=auto;html=1;entryX=0.5;entryY=0;entryDx=0;entryDy=0;exitX=0;exitY=0.5;exitDx=0;exitDy=0;" parent="1" source="D4AIVkhYn-2Lcm_9Q2JB-746" target="D4AIVkhYn-2Lcm_9Q2JB-743" edge="1">
          <mxGeometry relative="1" as="geometry">
            <mxPoint x="419" y="545.0000000000001" as="targetPoint" />
          </mxGeometry>
        </mxCell>
        <mxCell id="D4AIVkhYn-2Lcm_9Q2JB-746" value="&lt;font style=&quot;font-size: 10px;&quot;&gt;randonNum(1, 2)==1&lt;/font&gt;" style="rhombus;whiteSpace=wrap;html=1;" parent="1" vertex="1">
          <mxGeometry x="420" y="420" width="80" height="80" as="geometry" />
        </mxCell>
        <mxCell id="D4AIVkhYn-2Lcm_9Q2JB-760" style="edgeStyle=orthogonalEdgeStyle;rounded=0;orthogonalLoop=1;jettySize=auto;html=1;entryX=0.5;entryY=0;entryDx=0;entryDy=0;" parent="1" source="D4AIVkhYn-2Lcm_9Q2JB-751" target="D4AIVkhYn-2Lcm_9Q2JB-756" edge="1">
          <mxGeometry relative="1" as="geometry" />
        </mxCell>
        <mxCell id="6bKhDqab4c361egNnqWA-13" style="edgeStyle=orthogonalEdgeStyle;rounded=0;orthogonalLoop=1;jettySize=auto;html=1;entryX=1;entryY=0.5;entryDx=0;entryDy=0;" edge="1" parent="1" source="D4AIVkhYn-2Lcm_9Q2JB-751" target="D4AIVkhYn-2Lcm_9Q2JB-727">
          <mxGeometry relative="1" as="geometry">
            <Array as="points">
              <mxPoint x="560" y="650" />
              <mxPoint x="560" y="80" />
            </Array>
          </mxGeometry>
        </mxCell>
        <mxCell id="D4AIVkhYn-2Lcm_9Q2JB-751" value="&lt;font style=&quot;font-size: 10px;&quot;&gt;randonNum(1, 3)==1 &amp;amp;&amp;amp; win != 3&lt;/font&gt;" style="rhombus;whiteSpace=wrap;html=1;" parent="1" vertex="1">
          <mxGeometry x="420" y="600" width="110" height="100" as="geometry" />
        </mxCell>
        <mxCell id="D4AIVkhYn-2Lcm_9Q2JB-755" style="edgeStyle=orthogonalEdgeStyle;rounded=0;orthogonalLoop=1;jettySize=auto;html=1;entryX=0.5;entryY=0;entryDx=0;entryDy=0;" parent="1" source="D4AIVkhYn-2Lcm_9Q2JB-756" target="6bKhDqab4c361egNnqWA-14" edge="1">
          <mxGeometry relative="1" as="geometry">
            <mxPoint x="455" y="780" as="targetPoint" />
          </mxGeometry>
        </mxCell>
        <mxCell id="D4AIVkhYn-2Lcm_9Q2JB-756" value="&lt;font style=&quot;font-size: 10px;&quot;&gt;win == 3&lt;/font&gt;" style="rhombus;whiteSpace=wrap;html=1;" parent="1" vertex="1">
          <mxGeometry x="515" y="720" width="60" height="50" as="geometry" />
        </mxCell>
        <mxCell id="6bKhDqab4c361egNnqWA-17" style="edgeStyle=orthogonalEdgeStyle;rounded=0;orthogonalLoop=1;jettySize=auto;html=1;entryX=0.5;entryY=0;entryDx=0;entryDy=0;" edge="1" parent="1" source="D4AIVkhYn-2Lcm_9Q2JB-759" target="D4AIVkhYn-2Lcm_9Q2JB-769">
          <mxGeometry relative="1" as="geometry" />
        </mxCell>
        <mxCell id="D4AIVkhYn-2Lcm_9Q2JB-759" value="&lt;font style=&quot;font-size: 10px;&quot;&gt;player.lvl =100&lt;/font&gt;" style="rounded=0;whiteSpace=wrap;html=1;" parent="1" vertex="1">
          <mxGeometry x="405" y="830" width="70" height="30" as="geometry" />
        </mxCell>
        <mxCell id="D4AIVkhYn-2Lcm_9Q2JB-771" value="" style="edgeStyle=orthogonalEdgeStyle;rounded=0;orthogonalLoop=1;jettySize=auto;html=1;" parent="1" source="D4AIVkhYn-2Lcm_9Q2JB-769" target="D4AIVkhYn-2Lcm_9Q2JB-770" edge="1">
          <mxGeometry relative="1" as="geometry" />
        </mxCell>
        <mxCell id="D4AIVkhYn-2Lcm_9Q2JB-769" value="&lt;font style=&quot;font-size: 10px;&quot;&gt;timer(2)&lt;/font&gt;" style="rounded=0;whiteSpace=wrap;html=1;" parent="1" vertex="1">
          <mxGeometry x="400" y="890" width="70" height="30" as="geometry" />
        </mxCell>
        <mxCell id="D4AIVkhYn-2Lcm_9Q2JB-770" value="fin" style="ellipse;whiteSpace=wrap;html=1;" parent="1" vertex="1">
          <mxGeometry x="405" y="950" width="60" height="40" as="geometry" />
        </mxCell>
        <mxCell id="6bKhDqab4c361egNnqWA-9" style="edgeStyle=orthogonalEdgeStyle;rounded=0;orthogonalLoop=1;jettySize=auto;html=1;entryX=0.5;entryY=0;entryDx=0;entryDy=0;" edge="1" parent="1" source="6bKhDqab4c361egNnqWA-2" target="D4AIVkhYn-2Lcm_9Q2JB-718">
          <mxGeometry relative="1" as="geometry" />
        </mxCell>
        <mxCell id="6bKhDqab4c361egNnqWA-2" value="&lt;font style=&quot;font-size: 10px;&quot;&gt;itemsTxt(4)&lt;/font&gt;&lt;div&gt;&lt;font style=&quot;font-size: 10px;&quot;&gt;itemsTxt(5)&lt;/font&gt;&lt;/div&gt;" style="rounded=0;whiteSpace=wrap;html=1;" vertex="1" parent="1">
          <mxGeometry x="20" y="760" width="70" height="30" as="geometry" />
        </mxCell>
        <mxCell id="6bKhDqab4c361egNnqWA-4" value="yes" style="text;html=1;align=center;verticalAlign=middle;resizable=0;points=[];autosize=1;strokeColor=none;fillColor=none;" vertex="1" parent="1">
          <mxGeometry x="70" y="698" width="40" height="30" as="geometry" />
        </mxCell>
        <mxCell id="6bKhDqab4c361egNnqWA-5" value="yes" style="text;html=1;align=center;verticalAlign=middle;resizable=0;points=[];autosize=1;strokeColor=none;fillColor=none;" vertex="1" parent="1">
          <mxGeometry x="70" y="438" width="40" height="30" as="geometry" />
        </mxCell>
        <mxCell id="6bKhDqab4c361egNnqWA-6" value="yes" style="text;html=1;align=center;verticalAlign=middle;resizable=0;points=[];autosize=1;strokeColor=none;fillColor=none;" vertex="1" parent="1">
          <mxGeometry x="40" y="278" width="40" height="30" as="geometry" />
        </mxCell>
        <mxCell id="6bKhDqab4c361egNnqWA-7" value="no" style="text;html=1;align=center;verticalAlign=middle;resizable=0;points=[];autosize=1;strokeColor=none;fillColor=none;" vertex="1" parent="1">
          <mxGeometry x="210" y="178" width="40" height="30" as="geometry" />
        </mxCell>
        <mxCell id="6bKhDqab4c361egNnqWA-10" value="yes" style="text;html=1;align=center;verticalAlign=middle;resizable=0;points=[];autosize=1;strokeColor=none;fillColor=none;" vertex="1" parent="1">
          <mxGeometry x="413.5" y="120" width="40" height="30" as="geometry" />
        </mxCell>
        <mxCell id="6bKhDqab4c361egNnqWA-11" value="yes" style="text;html=1;align=center;verticalAlign=middle;resizable=0;points=[];autosize=1;strokeColor=none;fillColor=none;" vertex="1" parent="1">
          <mxGeometry x="420" y="268" width="40" height="30" as="geometry" />
        </mxCell>
        <mxCell id="6bKhDqab4c361egNnqWA-12" value="yes" style="text;html=1;align=center;verticalAlign=middle;resizable=0;points=[];autosize=1;strokeColor=none;fillColor=none;" vertex="1" parent="1">
          <mxGeometry x="400" y="428" width="40" height="30" as="geometry" />
        </mxCell>
        <mxCell id="6bKhDqab4c361egNnqWA-15" style="edgeStyle=orthogonalEdgeStyle;rounded=0;orthogonalLoop=1;jettySize=auto;html=1;" edge="1" parent="1" source="6bKhDqab4c361egNnqWA-14" target="D4AIVkhYn-2Lcm_9Q2JB-759">
          <mxGeometry relative="1" as="geometry" />
        </mxCell>
        <mxCell id="6bKhDqab4c361egNnqWA-14" value="&lt;font style=&quot;font-size: 10px;&quot;&gt;itemsTxt(4)&lt;/font&gt;&lt;div&gt;&lt;font style=&quot;font-size: 10px;&quot;&gt;itemsTxt(5)&lt;/font&gt;&lt;/div&gt;" style="rounded=0;whiteSpace=wrap;html=1;" vertex="1" parent="1">
          <mxGeometry x="405" y="770" width="70" height="30" as="geometry" />
        </mxCell>
        <mxCell id="6bKhDqab4c361egNnqWA-16" value="yes" style="text;html=1;align=center;verticalAlign=middle;resizable=0;points=[];autosize=1;strokeColor=none;fillColor=none;" vertex="1" parent="1">
          <mxGeometry x="490" y="718" width="40" height="30" as="geometry" />
        </mxCell>
        <mxCell id="6bKhDqab4c361egNnqWA-26" value="" style="edgeStyle=orthogonalEdgeStyle;rounded=0;orthogonalLoop=1;jettySize=auto;html=1;" edge="1" parent="1" source="6bKhDqab4c361egNnqWA-18" target="6bKhDqab4c361egNnqWA-24">
          <mxGeometry relative="1" as="geometry" />
        </mxCell>
        <mxCell id="6bKhDqab4c361egNnqWA-18" value="&lt;font style=&quot;font-size: 10px;&quot;&gt;inicio&lt;/font&gt;" style="ellipse;whiteSpace=wrap;html=1;" vertex="1" parent="1">
          <mxGeometry x="660" y="20" width="50" height="20" as="geometry" />
        </mxCell>
        <mxCell id="6bKhDqab4c361egNnqWA-22" style="edgeStyle=orthogonalEdgeStyle;rounded=0;orthogonalLoop=1;jettySize=auto;html=1;exitX=0;exitY=0.5;exitDx=0;exitDy=0;" edge="1" parent="1" source="6bKhDqab4c361egNnqWA-19" target="6bKhDqab4c361egNnqWA-21">
          <mxGeometry relative="1" as="geometry" />
        </mxCell>
        <mxCell id="6bKhDqab4c361egNnqWA-31" style="edgeStyle=orthogonalEdgeStyle;rounded=0;orthogonalLoop=1;jettySize=auto;html=1;entryX=0.5;entryY=0;entryDx=0;entryDy=0;" edge="1" parent="1" source="6bKhDqab4c361egNnqWA-19" target="6bKhDqab4c361egNnqWA-28">
          <mxGeometry relative="1" as="geometry" />
        </mxCell>
        <mxCell id="6bKhDqab4c361egNnqWA-19" value="&lt;font style=&quot;font-size: 10px;&quot;&gt;randonNum(1, 3)==1 &amp;amp;&amp;amp;player.life &amp;lt;10&lt;/font&gt;" style="rhombus;whiteSpace=wrap;html=1;" vertex="1" parent="1">
          <mxGeometry x="617.5" y="119" width="135" height="90" as="geometry" />
        </mxCell>
        <mxCell id="6bKhDqab4c361egNnqWA-21" value="&lt;div&gt;&lt;font style=&quot;font-size: 10px;&quot;&gt;itemsTxt(1)&lt;/font&gt;&lt;/div&gt;&lt;div&gt;&lt;font style=&quot;font-size: 10px;&quot;&gt;player.lifeMax += 1;&lt;/font&gt;&lt;/div&gt;" style="rounded=0;whiteSpace=wrap;html=1;" vertex="1" parent="1">
          <mxGeometry x="590" y="227" width="90" height="40" as="geometry" />
        </mxCell>
        <mxCell id="6bKhDqab4c361egNnqWA-23" value="yes" style="text;html=1;align=center;verticalAlign=middle;resizable=0;points=[];autosize=1;strokeColor=none;fillColor=none;" vertex="1" parent="1">
          <mxGeometry x="590" y="127" width="40" height="30" as="geometry" />
        </mxCell>
        <mxCell id="6bKhDqab4c361egNnqWA-25" value="" style="edgeStyle=orthogonalEdgeStyle;rounded=0;orthogonalLoop=1;jettySize=auto;html=1;" edge="1" parent="1" source="6bKhDqab4c361egNnqWA-24" target="6bKhDqab4c361egNnqWA-19">
          <mxGeometry relative="1" as="geometry" />
        </mxCell>
        <mxCell id="6bKhDqab4c361egNnqWA-24" value="&lt;font style=&quot;font-size: 10px;&quot;&gt;infinitePrizes(player)&lt;/font&gt;" style="ellipse;whiteSpace=wrap;html=1;" vertex="1" parent="1">
          <mxGeometry x="635" y="60" width="100" height="40" as="geometry" />
        </mxCell>
        <mxCell id="6bKhDqab4c361egNnqWA-27" style="edgeStyle=orthogonalEdgeStyle;rounded=0;orthogonalLoop=1;jettySize=auto;html=1;exitX=0;exitY=0.5;exitDx=0;exitDy=0;" edge="1" parent="1" source="6bKhDqab4c361egNnqWA-28" target="6bKhDqab4c361egNnqWA-29">
          <mxGeometry relative="1" as="geometry" />
        </mxCell>
        <mxCell id="6bKhDqab4c361egNnqWA-33" style="edgeStyle=orthogonalEdgeStyle;rounded=0;orthogonalLoop=1;jettySize=auto;html=1;" edge="1" parent="1" source="6bKhDqab4c361egNnqWA-28" target="6bKhDqab4c361egNnqWA-32">
          <mxGeometry relative="1" as="geometry" />
        </mxCell>
        <mxCell id="6bKhDqab4c361egNnqWA-28" value="&lt;font style=&quot;font-size: 10px;&quot;&gt;randonNum(1, 5)==1 &amp;amp;&amp;amp;player.damage &amp;lt;10&lt;/font&gt;" style="rhombus;whiteSpace=wrap;html=1;" vertex="1" parent="1">
          <mxGeometry x="630" y="290" width="135" height="90" as="geometry" />
        </mxCell>
        <mxCell id="6bKhDqab4c361egNnqWA-29" value="&lt;div&gt;&lt;font style=&quot;font-size: 10px;&quot;&gt;itemsTxt(2)&lt;/font&gt;&lt;/div&gt;&lt;div&gt;&lt;font style=&quot;font-size: 10px;&quot;&gt;player.dmage += 1;&lt;/font&gt;&lt;/div&gt;" style="rounded=0;whiteSpace=wrap;html=1;" vertex="1" parent="1">
          <mxGeometry x="575" y="380" width="90" height="40" as="geometry" />
        </mxCell>
        <mxCell id="6bKhDqab4c361egNnqWA-30" value="yes" style="text;html=1;align=center;verticalAlign=middle;resizable=0;points=[];autosize=1;strokeColor=none;fillColor=none;" vertex="1" parent="1">
          <mxGeometry x="610" y="298" width="40" height="30" as="geometry" />
        </mxCell>
        <mxCell id="6bKhDqab4c361egNnqWA-36" value="" style="edgeStyle=orthogonalEdgeStyle;rounded=0;orthogonalLoop=1;jettySize=auto;html=1;" edge="1" parent="1" source="6bKhDqab4c361egNnqWA-32" target="6bKhDqab4c361egNnqWA-35">
          <mxGeometry relative="1" as="geometry" />
        </mxCell>
        <mxCell id="6bKhDqab4c361egNnqWA-32" value="&lt;div&gt;&lt;font style=&quot;font-size: 10px;&quot;&gt;itemsTxt(3)&lt;/font&gt;&lt;/div&gt;&lt;div&gt;&lt;font style=&quot;font-size: 10px;&quot;&gt;player.items += 1;&lt;/font&gt;&lt;/div&gt;" style="rounded=0;whiteSpace=wrap;html=1;" vertex="1" parent="1">
          <mxGeometry x="652.5" y="440" width="90" height="40" as="geometry" />
        </mxCell>
        <mxCell id="6bKhDqab4c361egNnqWA-37" style="edgeStyle=orthogonalEdgeStyle;rounded=0;orthogonalLoop=1;jettySize=auto;html=1;entryX=1;entryY=0.5;entryDx=0;entryDy=0;" edge="1" parent="1" source="6bKhDqab4c361egNnqWA-35" target="6bKhDqab4c361egNnqWA-19">
          <mxGeometry relative="1" as="geometry">
            <Array as="points">
              <mxPoint x="790" y="550" />
              <mxPoint x="790" y="360" />
              <mxPoint x="773" y="360" />
              <mxPoint x="773" y="164" />
            </Array>
          </mxGeometry>
        </mxCell>
        <mxCell id="6bKhDqab4c361egNnqWA-39" value="" style="edgeStyle=orthogonalEdgeStyle;rounded=0;orthogonalLoop=1;jettySize=auto;html=1;" edge="1" parent="1" source="6bKhDqab4c361egNnqWA-35" target="6bKhDqab4c361egNnqWA-38">
          <mxGeometry relative="1" as="geometry" />
        </mxCell>
        <mxCell id="6bKhDqab4c361egNnqWA-35" value="&lt;font style=&quot;font-size: 10px;&quot;&gt;randonNum(1, 3)==1&lt;/font&gt;" style="rhombus;whiteSpace=wrap;html=1;" vertex="1" parent="1">
          <mxGeometry x="642.5" y="510" width="110" height="80" as="geometry" />
        </mxCell>
        <mxCell id="6bKhDqab4c361egNnqWA-41" value="" style="edgeStyle=orthogonalEdgeStyle;rounded=0;orthogonalLoop=1;jettySize=auto;html=1;" edge="1" parent="1" source="6bKhDqab4c361egNnqWA-38" target="6bKhDqab4c361egNnqWA-40">
          <mxGeometry relative="1" as="geometry" />
        </mxCell>
        <mxCell id="6bKhDqab4c361egNnqWA-38" value="&lt;font style=&quot;font-size: 10px;&quot;&gt;timer(2)&lt;/font&gt;" style="rounded=0;whiteSpace=wrap;html=1;" vertex="1" parent="1">
          <mxGeometry x="667.5" y="610" width="60" height="25" as="geometry" />
        </mxCell>
        <mxCell id="6bKhDqab4c361egNnqWA-40" value="fin" style="ellipse;whiteSpace=wrap;html=1;" vertex="1" parent="1">
          <mxGeometry x="667.5" y="678" width="60" height="40" as="geometry" />
        </mxCell>
      </root>
    </mxGraphModel>
  </diagram>
</mxfile>
